<svg version="1.1" id="Layer_1" xmlns="http://www.w3.org/2000/svg" xmlns:xlink="http://www.w3.org/1999/xlink" x="0px" y="0px"
	 width="100%" viewBox="0 0 512 512" enable-background="new 0 0 512 512" xml:space="preserve">
<path fill="#000000" opacity="1.000000" stroke="none" 
	d="
M291.000000,513.000000 
	C195.356552,513.000000 100.213081,512.979919 5.069745,513.084900 
	C1.799262,513.088501 0.894573,512.638489 0.897082,509.071533 
	C1.015226,341.112579 1.016805,173.153549 0.891954,5.194640 
	C0.889162,1.439416 1.845932,0.913295 5.303416,0.915291 
	C173.095764,1.012162 340.888153,1.011489 508.680511,0.918975 
	C512.094482,0.917092 513.114197,1.378825 513.111267,5.178544 
	C512.982483,173.137466 512.985168,341.096497 513.101074,509.055450 
	C513.103516,512.589539 512.251587,513.093323 508.946289,513.088074 
	C436.464325,512.972717 363.982147,513.000000 291.000000,513.000000 
z"/>
<path fill="#2E2D2D" opacity="1.000000" stroke="none" 
	d="
M271.619019,33.607201 
	C275.874329,30.659595 279.787201,27.847118 283.765869,25.130957 
	C289.969360,20.895908 294.134796,22.379118 295.890533,29.485403 
	C299.491028,44.058338 301.548431,58.888290 300.865295,73.866257 
	C300.062805,91.461044 297.792419,108.935150 291.901703,125.677612 
	C285.524078,143.803940 282.060760,162.510635 280.105835,181.552246 
	C279.838898,184.152161 280.663269,186.592926 281.942993,188.695724 
	C289.851349,201.690201 299.712036,212.960480 311.134949,223.079926 
	C325.521637,235.824951 342.558655,244.744690 357.640442,256.386108 
	C380.511017,274.039551 401.303894,293.906036 415.583282,319.427063 
	C423.732788,333.992249 429.072144,349.588867 430.103790,366.598328 
	C431.659882,392.254608 424.215637,414.645020 407.473236,434.019531 
	C391.630890,452.352386 371.772461,462.086578 347.333679,461.998077 
	C333.504364,461.948029 319.674622,461.967896 305.845337,462.019012 
	C304.268005,462.024811 302.556915,461.476044 300.795715,462.794800 
	C302.277405,465.082703 304.210632,466.727600 306.371613,468.272369 
	C309.344482,470.397583 311.183960,473.093323 308.515259,476.686951 
	C305.966492,480.119019 302.680725,479.454376 299.601074,477.704407 
	C294.398865,474.748291 290.937225,470.054443 288.171478,464.917267 
	C287.187500,463.089630 286.356628,461.409973 284.196869,462.436737 
	C282.122772,463.422791 283.242828,465.352264 283.838684,466.821320 
	C284.954132,469.571289 286.267761,472.240112 287.449310,474.964233 
	C288.944794,478.412231 289.488007,481.777191 285.619812,484.076172 
	C282.412170,485.982513 278.764496,484.482452 276.712219,480.314575 
	C274.504822,475.831665 272.813904,471.117645 272.015381,466.166840 
	C271.530945,463.163544 270.120789,461.826874 267.000549,461.987091 
	C263.653809,462.158966 263.925385,464.475647 264.014191,466.610718 
	C264.407471,476.066803 263.102417,485.559357 264.784943,494.995728 
	C265.432526,498.627411 262.789276,501.812012 259.356201,501.945038 
	C255.288177,502.102722 253.058899,500.133087 253.039566,496.002258 
	C252.995926,486.671722 253.055420,477.340607 252.977325,468.010498 
	C252.963043,466.302734 253.617889,464.399872 251.813110,462.426514 
	C250.491119,466.963196 249.510330,471.228241 248.004227,475.298889 
	C245.365234,482.431519 241.702164,488.795776 234.136856,491.971252 
	C231.109360,493.241974 228.481735,493.368378 226.841080,490.261597 
	C225.313461,487.368866 225.413040,484.434082 228.492386,482.344055 
	C234.331284,478.381073 237.424866,472.638184 238.940674,465.962952 
	C239.202881,464.808258 240.775452,462.937103 238.336685,462.227936 
	C236.621155,461.729095 235.586166,462.907410 234.833771,464.358948 
	C231.776581,470.257172 227.395050,474.967743 221.780609,478.481384 
	C218.976776,480.236084 215.752594,481.050323 212.886185,479.074188 
	C209.925232,477.032928 210.605133,471.809753 213.783524,469.649384 
	C215.842102,468.250183 217.959641,466.933929 219.970474,465.470215 
	C220.741058,464.909332 221.665741,464.105042 221.337341,463.018250 
	C220.977524,461.827545 219.732376,462.024841 218.778229,462.017487 
	C213.946518,461.980072 209.114410,461.990753 204.282440,461.990021 
	C190.786194,461.987976 177.287842,462.139465 163.794174,461.952759 
	C143.775726,461.675781 126.837830,453.913788 112.057198,440.621582 
	C95.847351,426.044098 86.975761,407.728424 84.263420,386.450165 
	C82.061523,369.176331 83.781326,352.071655 88.780251,335.325592 
	C95.411369,313.111908 107.284729,293.932007 122.111328,276.314880 
	C136.234070,259.533966 153.104431,246.008759 170.642838,233.044174 
	C186.444138,221.363647 200.698517,207.964371 210.842590,190.741959 
	C215.326477,183.129288 217.890625,175.171127 218.096497,166.229523 
	C218.504456,148.510757 216.706055,131.085403 212.468170,113.898849 
	C211.423737,109.663177 212.731400,106.744255 216.877960,105.182449 
	C218.432755,104.596848 219.917831,103.762352 221.515289,103.367271 
	C224.665115,102.588264 225.383057,100.600876 224.762817,97.730659 
	C221.183792,81.168709 217.599197,64.611450 210.976334,48.905621 
	C209.176163,44.636612 209.481705,41.260265 213.945374,38.271893 
	C225.525681,30.519016 236.734726,22.214203 248.204254,14.292258 
	C254.486740,9.952974 257.606812,11.101319 259.922729,18.371706 
	C261.484100,23.273418 262.844116,28.242081 264.187439,33.209663 
	C265.520477,38.139191 265.663940,38.210663 269.654480,34.854210 
	C270.152405,34.435417 270.753052,34.138748 271.619019,33.607201 
z"/>
<path fill="#FEEDC7" opacity="1.000000" stroke="none" 
	d="
M274.559204,145.169250 
	C266.473206,181.892792 266.773376,218.099167 276.891235,254.094940 
	C280.679260,267.571472 285.668030,280.545776 292.702484,292.713104 
	C298.776978,303.220001 303.978363,314.177490 308.698181,325.356384 
	C309.777222,327.912079 310.899536,330.259796 314.506256,330.529755 
	C317.256744,331.252808 318.248535,333.145386 318.987091,335.216400 
	C322.997009,346.460510 325.726837,358.014771 327.022949,369.878052 
	C327.300812,372.421295 327.763397,375.213776 325.360016,377.742126 
	C322.344879,380.203125 322.496979,383.245667 322.453766,386.255615 
	C322.215759,402.843964 318.090515,418.169281 307.462311,431.275482 
	C296.834808,444.381012 283.798889,452.551056 266.130249,451.160126 
	C262.823669,450.899780 259.453430,450.951782 256.147919,451.250641 
	C222.955261,454.251953 196.537430,424.030273 191.927139,398.212555 
	C187.771072,374.938538 191.660019,352.496216 197.579208,330.189026 
	C206.677475,295.901031 221.015091,263.471558 233.356750,230.334549 
	C239.970093,212.577988 246.394943,194.761322 249.421967,175.943375 
	C249.554047,175.122253 249.904785,174.275635 249.802155,173.486618 
	C248.477692,163.304489 253.692413,157.214828 262.146179,152.713226 
	C266.074005,150.621658 269.491669,147.572067 273.475342,144.882278 
	C274.041290,144.814087 274.272522,144.820389 274.559204,145.169250 
z"/>
<path fill="#FDECC6" opacity="1.000000" stroke="none" 
	d="
M140.100952,389.716553 
	C135.725571,360.483643 144.261581,334.305115 156.613098,308.968719 
	C165.706818,290.314941 177.533752,273.460754 190.835190,257.560883 
	C207.117477,238.097839 220.244980,216.857010 226.308441,191.845612 
	C226.856827,189.583572 227.829468,187.247650 227.657288,185.019272 
	C227.026550,176.856476 232.366287,173.336166 239.022415,169.904816 
	C238.761185,177.502884 236.948807,184.471588 235.385040,191.463486 
	C229.686432,216.942993 218.933701,240.539703 208.532257,264.309052 
	C196.433456,291.957214 186.932495,320.476837 182.465286,350.463165 
	C180.097641,366.356018 179.379440,382.312042 182.145859,398.226929 
	C185.934525,420.022736 195.878510,438.033508 215.961441,450.769226 
	C207.494049,451.547607 200.014740,451.640533 192.768814,449.402344 
	C165.014526,440.829285 148.917496,421.240509 141.024948,394.046997 
	C140.654526,392.770691 140.440918,391.448853 140.100952,389.716553 
z"/>
<path fill="#E8B097" opacity="1.000000" stroke="none" 
	d="
M203.597931,220.208511 
	C196.906128,233.456299 188.018631,244.834824 178.654007,255.931885 
	C154.290482,284.802582 136.829224,317.198120 130.609436,354.800568 
	C125.399460,386.298035 130.757614,415.168884 154.433441,438.640808 
	C158.884369,443.053467 164.014664,446.654236 169.847931,450.941040 
	C158.544006,451.619995 148.708725,449.636749 139.404800,445.507446 
	C111.956589,433.325317 97.456696,411.228516 95.250641,382.127930 
	C92.087250,340.398743 108.795105,305.609833 136.981537,275.837158 
	C149.967545,262.120300 165.462219,251.297684 180.243973,239.671249 
	C187.970139,233.594315 195.516663,227.312668 202.594879,220.025574 
	C203.120789,219.893951 203.337204,219.890411 203.597931,220.208511 
z"/>
<path fill="#FEEDC7" opacity="1.000000" stroke="none" 
	d="
M289.780884,258.339783 
	C285.525665,247.959732 283.623688,237.188766 281.611450,225.776367 
	C282.549927,226.433044 283.046814,226.596786 283.222076,226.929794 
	C290.985138,241.680206 301.736664,254.060089 313.420654,265.801300 
	C332.952148,285.428436 351.135437,306.197540 365.509125,330.025635 
	C373.020721,342.478088 379.099884,355.537720 382.005585,369.898163 
	C386.304901,391.146118 381.100800,409.830566 366.518524,425.792206 
	C349.581421,444.331482 328.876343,453.606781 302.708069,450.776062 
	C306.105133,447.698273 309.107880,444.977753 312.384613,442.090027 
	C327.692902,429.844849 339.404999,415.507874 342.761292,395.886230 
	C346.173309,375.938599 342.579010,356.983246 334.334076,338.615417 
	C324.629486,316.995941 311.406860,297.422852 299.352142,277.170532 
	C295.762177,271.139282 293.374695,264.579865 289.780884,258.339783 
z"/>
<path fill="#E7AF97" opacity="1.000000" stroke="none" 
	d="
M355.504700,450.167969 
	C355.765991,448.131470 357.585632,447.480499 359.024872,446.420013 
	C391.975159,422.141998 401.585876,390.150360 387.364807,351.739777 
	C377.185730,324.246490 359.965240,301.254272 340.924683,279.450867 
	C332.699554,270.032196 323.869080,261.185913 315.004730,252.372971 
	C306.568298,243.985428 299.390472,234.632233 293.617279,223.811554 
	C293.497406,223.269272 293.509735,223.047104 293.855713,222.816513 
	C309.221161,237.358490 326.814301,248.403305 344.013824,260.115143 
	C373.231720,280.010834 397.183289,304.984924 411.640656,337.824585 
	C427.004700,372.723877 420.100311,408.201477 393.480225,433.040222 
	C382.955963,442.860260 370.458679,448.683868 355.504700,450.167969 
z"/>
<path fill="#A7D988" opacity="1.000000" stroke="none" 
	d="
M260.983704,130.808395 
	C263.052307,107.532066 260.847717,85.110336 254.475174,63.123352 
	C253.656799,60.299782 254.473114,58.929142 256.716858,57.416439 
	C265.279388,51.643696 273.789032,45.786144 282.172668,39.757618 
	C285.295410,37.512119 286.546967,37.126469 287.319458,41.727318 
	C292.021851,69.734276 289.772003,97.140457 280.963715,124.076607 
	C280.323669,126.033928 279.397827,127.641754 277.635101,128.865265 
	C271.937164,132.820282 266.322113,136.894714 260.404022,141.116516 
	C259.508820,137.362717 260.953003,134.358154 260.983704,130.808395 
z"/>
<path fill="#E9B198" opacity="1.000000" stroke="none" 
	d="
M289.443207,258.671265 
	C291.645752,258.345490 292.442169,260.098907 293.283752,261.703278 
	C304.570312,283.220154 318.748291,303.040802 330.058777,324.549377 
	C340.590942,344.577850 348.012054,365.316803 346.007874,388.454620 
	C344.098511,410.497650 334.129822,427.927948 316.155273,440.785187 
	C315.372345,441.345245 314.335602,441.550385 313.037842,441.921875 
	C322.148987,430.351654 328.994904,417.526672 331.423767,402.579437 
	C332.407806,396.523468 333.112762,390.451691 332.960693,384.305817 
	C332.831970,379.105164 331.455383,377.888428 325.489746,378.035583 
	C324.915222,361.793762 320.726898,346.377777 314.987061,330.947388 
	C320.054352,327.923676 320.494507,326.683105 318.226166,321.202454 
	C313.596283,310.016327 308.349335,299.124176 302.334808,288.620605 
	C296.957977,279.230713 292.733582,269.364807 289.443207,258.671265 
z"/>
<path fill="#709955" opacity="1.000000" stroke="none" 
	d="
M242.585236,31.593410 
	C250.912338,25.786541 250.912354,25.786535 253.291031,35.010902 
	C255.914841,45.185982 256.045563,45.383522 247.429459,51.085785 
	C242.794571,54.153225 241.446274,57.390682 243.405457,62.778095 
	C246.418411,71.063194 248.026978,79.755257 249.467102,88.469444 
	C249.934143,91.295509 249.373306,92.611191 246.721390,93.789879 
	C236.115128,98.504021 236.187973,98.588463 233.784210,87.324211 
	C231.108429,74.785309 227.745850,62.427616 223.218338,50.428795 
	C221.990952,47.176003 222.567932,45.399647 225.517563,43.517300 
	C231.262192,39.851292 236.719559,35.735168 242.585236,31.593410 
z"/>
<path fill="#A7D887" opacity="1.000000" stroke="none" 
	d="
M247.793793,144.557953 
	C247.682388,145.684418 247.662186,146.377014 247.597717,147.413452 
	C247.217896,148.717041 246.792953,149.640106 246.281540,150.857162 
	C240.846985,155.073318 235.527695,159.007278 229.537445,163.437485 
	C229.105560,156.068329 228.763565,149.535263 228.330063,143.008255 
	C227.755600,134.359268 226.374847,125.816437 224.515717,117.363487 
	C224.044449,115.220764 224.165375,113.969986 226.417282,113.150009 
	C231.713959,111.221367 236.951126,109.129280 242.586365,107.123169 
	C246.900482,110.781937 246.104736,115.932503 247.013458,120.464279 
	C248.577454,128.263977 248.211227,136.212387 247.793793,144.557953 
z"/>
<path fill="#719A57" opacity="1.000000" stroke="none" 
	d="
M248.008148,144.732986 
	C245.497299,137.853622 246.522308,130.334412 245.096390,123.087311 
	C244.115280,118.100883 243.595123,113.023750 242.914642,107.565079 
	C243.054520,107.006393 243.118790,106.823975 243.247345,106.739998 
	C245.330597,105.379272 247.839111,103.491058 249.991669,104.506554 
	C252.218307,105.557014 251.049179,108.695755 251.088486,110.892738 
	C251.290283,122.172050 251.000916,133.426880 248.008148,144.732986 
z"/>
<path fill="#719A57" opacity="1.000000" stroke="none" 
	d="
M246.459381,150.980438 
	C246.206070,150.055466 246.160812,148.948685 247.271790,147.917252 
	C247.910233,148.941742 247.544357,149.937317 246.459381,150.980438 
z"/>
<path fill="#E7AF97" opacity="1.000000" stroke="none" 
	d="
M355.195007,450.219147 
	C354.840881,450.845123 354.350586,450.921478 353.820190,450.441986 
	C354.032135,450.264832 354.244080,450.087677 354.667969,449.891083 
	C354.879883,449.871643 355.090179,450.103119 355.195007,450.219147 
z"/>
<path fill="#FEEDC7" opacity="1.000000" stroke="none" 
	d="
M274.005432,144.990433 
	C274.095856,144.624588 274.381653,144.441360 274.667419,144.258148 
	C274.730530,144.516525 274.793640,144.774902 274.735687,145.272522 
	C274.476654,145.398880 274.338715,145.285965 274.005432,144.990433 
z"/>
<path fill="#E8B097" opacity="1.000000" stroke="none" 
	d="
M203.083649,220.061707 
	C203.191284,219.689529 203.478226,219.481552 203.765152,219.273590 
	C203.819305,219.533112 203.873474,219.792633 203.784958,220.291138 
	C203.642273,220.530136 203.262924,220.225937 203.083649,220.061707 
z"/>
<path fill="#755F55" opacity="1.000000" stroke="none" 
	d="
M292.954895,222.110168 
	C292.009766,221.525223 291.752747,221.114929 292.898132,221.241013 
	C293.130737,221.685638 293.255310,221.949127 292.954895,222.110168 
z"/>
<path fill="#E7AF97" opacity="1.000000" stroke="none" 
	d="
M292.956543,221.625015 
	C293.324493,221.689407 293.642792,221.956665 294.075256,222.516022 
	C294.189392,222.808105 293.842743,223.153595 293.663940,223.322525 
	C293.274902,223.161743 293.064697,222.832031 292.692200,222.255005 
	C292.529907,222.007721 292.906921,221.827881 292.956543,221.625015 
z"/>
<path fill="#7B7466" opacity="1.000000" stroke="none" 
	d="
M281.630920,224.666000 
	C281.437439,224.689560 281.369110,224.600861 281.300781,224.512146 
	C281.452545,224.526001 281.604279,224.539856 281.630920,224.666000 
z"/>
</svg>